<?xml version="1.0" encoding="utf-8"?>
<!-- Generator: Adobe Illustrator 25.4.0, SVG Export Plug-In . SVG Version: 6.00 Build 0)  -->
<svg version="1.1" id="Layer_1" xmlns="http://www.w3.org/2000/svg" xmlns:xlink="http://www.w3.org/1999/xlink" x="0px" y="0px"
	 viewBox="0 0 100 100" style="enable-background:new 0 0 100 100;" xml:space="preserve">
<style type="text/css">
	.st0{fill:#232323;}
	.st1{fill:none;stroke:#FFFFFF;stroke-width:4.32;stroke-linecap:round;stroke-linejoin:round;}
</style>
<g>
	<path class="st0" d="M93,100H7c-3.9,0-7-3.1-7-7V7c0-3.9,3.1-7,7-7h86c3.9,0,7,3.1,7,7v86C100,96.9,96.9,100,93,100z"/>
</g>
<g>
	<polygon class="st1" points="50,23 77,40.5 77,59.5 50,77 23,59.5 23,40.5 	"/>
	<line class="st1" x1="50" y1="77" x2="50" y2="59.5"/>
	<polyline class="st1" points="77,40.5 50,59.5 23,40.5 	"/>
	<polyline class="st1" points="23,59.5 50,40.5 77,59.5 	"/>
	<line class="st1" x1="50" y1="23" x2="50" y2="40.5"/>
</g>
</svg>
